<svg width="712" height="710" viewBox="0 0 712 710" fill="none" xmlns="http://www.w3.org/2000/svg">
<path d="M355.5 705C548.8 705 705.5 548.3 705.5 355C705.5 161.7 548.8 5 355.5 5C162.2 5 5.5 161.7 5.5 355C5.5 548.3 162.2 705 355.5 705Z" fill="#0040FF"/>
<path d="M460.7 174.9C431.5 122.1 370.2 98.4004 312.7 115.7C258.4 132.1 220.8 190.5 226.6 249.6C234.8 333 289.9 363.2 398.4 358.7C403.4 392 322.4 530.6 251.8 568.6C230.1 580.3 223.5 583.6 233.5 593.6C246.2 606.3 255.2 596.8 265.2 591.9C354.3 539.6 432.3 467.1 467.4 365.3C489.1 302.5 495 236.8 460.7 174.9ZM318.3 304.8C302.8 315.2 282.4 313.8 268.9 300.7C253.1 285.4 248.8 265.4 249.5 244.7C250.6 211.2 264.2 182.8 288.9 159.8C291.4 157.4 294 152 298.1 155.7C302.1 159.2 296.6 161.7 294.8 164.3C279 186.2 272.4 210.6 273.2 238.8C305 227.6 321.6 233.1 331.6 257.1C338.8 274.2 332.9 295 318.3 304.8Z" fill="white"/>
</svg>
